<svg width="86" height="27" viewBox="0 0 86 27" fill="none" xmlns="http://www.w3.org/2000/svg">
<path d="M7.77273 6.27273C7.70455 5.69697 7.42803 5.25 6.94318 4.93182C6.45833 4.61364 5.86364 4.45455 5.15909 4.45455C4.64394 4.45455 4.19318 4.53788 3.80682 4.70455C3.42424 4.87121 3.125 5.10038 2.90909 5.39205C2.69697 5.68371 2.59091 6.01515 2.59091 6.38636C2.59091 6.69697 2.66477 6.96401 2.8125 7.1875C2.96402 7.4072 3.1572 7.59091 3.39205 7.73864C3.62689 7.88258 3.87311 8.00189 4.13068 8.09659C4.38826 8.1875 4.625 8.26136 4.84091 8.31818L6.02273 8.63636C6.32576 8.71591 6.66288 8.82576 7.03409 8.96591C7.40909 9.10606 7.76705 9.29735 8.10795 9.53977C8.45265 9.77841 8.73674 10.0852 8.96023 10.4602C9.18371 10.8352 9.29545 11.2955 9.29545 11.8409C9.29545 12.4697 9.13068 13.0379 8.80114 13.5455C8.47538 14.053 7.99811 14.4564 7.36932 14.7557C6.74432 15.0549 5.98485 15.2045 5.09091 15.2045C4.25758 15.2045 3.53598 15.0701 2.92614 14.8011C2.32008 14.5322 1.8428 14.1572 1.49432 13.6761C1.14962 13.1951 0.954545 12.6364 0.909091 12H2.36364C2.40152 12.4394 2.54924 12.803 2.80682 13.0909C3.06818 13.375 3.39773 13.5871 3.79545 13.7273C4.19697 13.8636 4.62879 13.9318 5.09091 13.9318C5.62879 13.9318 6.11174 13.8447 6.53977 13.6705C6.9678 13.4924 7.30682 13.2462 7.55682 12.9318C7.80682 12.6136 7.93182 12.2424 7.93182 11.8182C7.93182 11.4318 7.82386 11.1174 7.60795 10.875C7.39205 10.6326 7.10795 10.4356 6.75568 10.2841C6.40341 10.1326 6.02273 10 5.61364 9.88636L4.18182 9.47727C3.27273 9.21591 2.55303 8.8428 2.02273 8.35795C1.49242 7.87311 1.22727 7.23864 1.22727 6.45455C1.22727 5.80303 1.40341 5.23485 1.75568 4.75C2.11174 4.26136 2.58902 3.88258 3.1875 3.61364C3.78977 3.34091 4.46212 3.20455 5.20455 3.20455C5.95455 3.20455 6.62121 3.33901 7.20455 3.60795C7.78788 3.87311 8.25 4.23674 8.59091 4.69886C8.93561 5.16098 9.11742 5.68561 9.13636 6.27273H7.77273ZM15.0895 15.1818C14.2486 15.1818 13.5232 14.9962 12.9134 14.625C12.3073 14.25 11.8395 13.7273 11.5099 13.0568C11.1842 12.3826 11.0213 11.5985 11.0213 10.7045C11.0213 9.81061 11.1842 9.02273 11.5099 8.34091C11.8395 7.6553 12.2978 7.12121 12.8849 6.73864C13.4759 6.35227 14.1652 6.15909 14.9531 6.15909C15.4077 6.15909 15.8565 6.23485 16.2997 6.38636C16.7429 6.53788 17.1463 6.78409 17.5099 7.125C17.8736 7.46212 18.1634 7.90909 18.3793 8.46591C18.5952 9.02273 18.7031 9.70833 18.7031 10.5227V11.0909H11.9759V9.93182H17.3395C17.3395 9.43939 17.241 9 17.044 8.61364C16.8509 8.22727 16.5743 7.92235 16.2145 7.69886C15.8584 7.47538 15.438 7.36364 14.9531 7.36364C14.419 7.36364 13.9569 7.49621 13.5668 7.76136C13.1804 8.02273 12.883 8.36364 12.6747 8.78409C12.4664 9.20455 12.3622 9.6553 12.3622 10.1364V10.9091C12.3622 11.5682 12.4759 12.1269 12.7031 12.5852C12.9342 13.0398 13.2543 13.3864 13.6634 13.625C14.0724 13.8598 14.5478 13.9773 15.0895 13.9773C15.4418 13.9773 15.7599 13.928 16.044 13.8295C16.3319 13.7273 16.58 13.5758 16.7884 13.375C16.9967 13.1705 17.1577 12.9167 17.2713 12.6136L18.5668 12.9773C18.4304 13.4167 18.2012 13.803 17.8793 14.1364C17.5573 14.4659 17.1596 14.7235 16.6861 14.9091C16.2126 15.0909 15.6804 15.1818 15.0895 15.1818ZM24.402 15.1818C23.5611 15.1818 22.8357 14.9962 22.2259 14.625C21.6198 14.25 21.152 13.7273 20.8224 13.0568C20.4967 12.3826 20.3338 11.5985 20.3338 10.7045C20.3338 9.81061 20.4967 9.02273 20.8224 8.34091C21.152 7.6553 21.6103 7.12121 22.1974 6.73864C22.7884 6.35227 23.4777 6.15909 24.2656 6.15909C24.7202 6.15909 25.169 6.23485 25.6122 6.38636C26.0554 6.53788 26.4588 6.78409 26.8224 7.125C27.1861 7.46212 27.4759 7.90909 27.6918 8.46591C27.9077 9.02273 28.0156 9.70833 28.0156 10.5227V11.0909H21.2884V9.93182H26.652C26.652 9.43939 26.5535 9 26.3565 8.61364C26.1634 8.22727 25.8868 7.92235 25.527 7.69886C25.1709 7.47538 24.7505 7.36364 24.2656 7.36364C23.7315 7.36364 23.2694 7.49621 22.8793 7.76136C22.4929 8.02273 22.1955 8.36364 21.9872 8.78409C21.7789 9.20455 21.6747 9.6553 21.6747 10.1364V10.9091C21.6747 11.5682 21.7884 12.1269 22.0156 12.5852C22.2467 13.0398 22.5668 13.3864 22.9759 13.625C23.3849 13.8598 23.8603 13.9773 24.402 13.9773C24.7543 13.9773 25.0724 13.928 25.3565 13.8295C25.6444 13.7273 25.8925 13.5758 26.1009 13.375C26.3092 13.1705 26.4702 12.9167 26.5838 12.6136L27.8793 12.9773C27.7429 13.4167 27.5137 13.803 27.1918 14.1364C26.8698 14.4659 26.4721 14.7235 25.9986 14.9091C25.5251 15.0909 24.9929 15.1818 24.402 15.1818ZM35.2145 15H33.7372L38.0099 3.36364H39.4645L43.7372 15H42.2599L38.7827 5.20455H38.6918L35.2145 15ZM35.7599 10.4545H41.7145V11.7045H35.7599V10.4545ZM46.7088 3.36364V15H45.3679V3.36364H46.7088ZM50.5057 3.36364V15H49.1648V3.36364H50.5057Z" fill="#12B09C"/>
<mask id="mask0_327_9" style="mask-type:alpha" maskUnits="userSpaceOnUse" x="62" y="0" width="24" height="18">
<rect x="62" width="24" height="17.0526" fill="#D9D9D9"/>
</mask>
<g mask="url(#mask0_327_9)">
<path d="M78.175 9.23702H66V7.81597H78.175L72.575 3.83702L74 2.84229L82 8.5265L74 14.2107L72.575 13.216L78.175 9.23702Z" fill="#12B09C"/>
</g>
</svg>
