<svg width="155" height="19" viewBox="0 0 155 19" fill="none" xmlns="http://www.w3.org/2000/svg">
<rect x="0.5" y="0.5" width="154" height="17.0702" fill="white" stroke="black"/>
<rect x="5.5" y="3.51172" width="11" height="11.0468" fill="white" stroke="#15AB98"/>
<path d="M9.85004 6.27494V5.64494H11.55V12.8149H10.84V6.27494H9.85004Z" fill="black"/>
<rect x="22.5" y="3.51172" width="11" height="11.0468" fill="white" stroke="#938D8D"/>
<path d="M25.6487 12.2649C26.8753 11.3449 27.822 10.5216 28.4887 9.79494C29.162 9.06161 29.4987 8.34494 29.4987 7.64494C29.4987 7.18494 29.382 6.81827 29.1487 6.54494C28.922 6.26494 28.5487 6.12494 28.0287 6.12494C27.522 6.12494 27.1287 6.28494 26.8487 6.60494C26.5753 6.91827 26.422 7.33827 26.3887 7.86494H25.7087C25.7487 7.12494 25.9753 6.55161 26.3887 6.14494C26.8087 5.73161 27.3553 5.52494 28.0287 5.52494C28.6753 5.52494 29.1987 5.70827 29.5987 6.07494C29.9987 6.43494 30.1987 6.94827 30.1987 7.61494C30.1987 8.42161 29.862 9.20494 29.1887 9.96494C28.522 10.7183 27.6987 11.4549 26.7187 12.1749H30.4187V12.7649H25.6487V12.2649Z" fill="black"/>
<path d="M25.6487 12.2649C26.8753 11.3449 27.822 10.5216 28.4887 9.79494C29.162 9.06161 29.4987 8.34494 29.4987 7.64494C29.4987 7.18494 29.382 6.81827 29.1487 6.54494C28.922 6.26494 28.5487 6.12494 28.0287 6.12494C27.522 6.12494 27.1287 6.28494 26.8487 6.60494C26.5753 6.91827 26.422 7.33827 26.3887 7.86494H25.7087C25.7487 7.12494 25.9753 6.55161 26.3887 6.14494C26.8087 5.73161 27.3553 5.52494 28.0287 5.52494C28.6753 5.52494 29.1987 5.70827 29.5987 6.07494C29.9987 6.43494 30.1987 6.94827 30.1987 7.61494C30.1987 8.42161 29.862 9.20494 29.1887 9.96494C28.522 10.7183 27.6987 11.4549 26.7187 12.1749H30.4187V12.7649H25.6487V12.2649Z" fill="black"/>
<rect x="38.5" y="3.51172" width="11" height="11.0468" fill="white" stroke="#938D8D"/>
<path d="M41.6952 7.47494C41.7419 6.86827 41.9752 6.39161 42.3952 6.04494C42.8219 5.69161 43.3719 5.51494 44.0452 5.51494C44.4919 5.51494 44.8752 5.59494 45.1952 5.75494C45.5152 5.91494 45.7552 6.13494 45.9152 6.41494C46.0819 6.68827 46.1652 6.99827 46.1652 7.34494C46.1652 7.76494 46.0419 8.12827 45.7952 8.43494C45.5485 8.74161 45.1985 8.93161 44.7452 9.00494V9.05494C45.2185 9.14827 45.5952 9.35494 45.8752 9.67494C46.1552 9.98827 46.2952 10.4016 46.2952 10.9149C46.2952 11.4883 46.1019 11.9583 45.7152 12.3249C45.3352 12.6849 44.7819 12.8649 44.0552 12.8649C43.3619 12.8649 42.7919 12.6849 42.3452 12.3249C41.8985 11.9583 41.6419 11.4416 41.5752 10.7749H42.2552C42.3152 11.2216 42.5019 11.5849 42.8152 11.8649C43.1285 12.1383 43.5419 12.2749 44.0552 12.2749C44.5619 12.2749 44.9485 12.1416 45.2152 11.8749C45.4885 11.6083 45.6252 11.2683 45.6252 10.8549C45.6252 9.84161 44.8952 9.33494 43.4352 9.33494H43.2152V8.74494H43.4452C44.8052 8.74494 45.4852 8.30161 45.4852 7.41494C45.4852 7.02827 45.3585 6.71827 45.1052 6.48494C44.8519 6.24494 44.4919 6.12494 44.0252 6.12494C43.5719 6.12494 43.1952 6.24494 42.8952 6.48494C42.6019 6.71827 42.4285 7.04827 42.3752 7.47494H41.6952Z" fill="black"/>
<rect x="54.5" y="3.51172" width="11" height="11.0468" fill="white" stroke="#938D8D"/>
<path d="M57.2736 11.1149V10.5849L60.9136 5.68494H61.7436V10.5049H62.8136V11.1149H61.7436V12.8149H61.0536V11.1149H57.2736ZM61.0836 6.45494L58.0836 10.5049H61.0836V6.45494Z" fill="black"/>
<rect x="70.5" y="3.51172" width="11" height="11.0468" fill="white" stroke="#938D8D"/>
<path d="M78.0841 6.24494H74.4241V8.80494C74.5907 8.57161 74.8341 8.38161 75.1541 8.23494C75.4741 8.08161 75.8207 8.00494 76.1941 8.00494C76.7407 8.00494 77.1874 8.11827 77.5341 8.34494C77.8807 8.56494 78.1307 8.85494 78.2841 9.21494C78.4374 9.56827 78.5141 9.94827 78.5141 10.3549C78.5141 10.8216 78.4241 11.2449 78.2441 11.6249C78.0707 11.9983 77.8007 12.2949 77.4341 12.5149C77.0741 12.7349 76.6241 12.8449 76.0841 12.8449C75.3974 12.8449 74.8407 12.6683 74.4141 12.3149C73.9874 11.9549 73.7274 11.4716 73.6341 10.8649H74.3241C74.4107 11.3049 74.6107 11.6449 74.9241 11.8849C75.2374 12.1249 75.6241 12.2449 76.0841 12.2449C76.6641 12.2449 77.1007 12.0749 77.3941 11.7349C77.6941 11.3883 77.8441 10.9316 77.8441 10.3649C77.8441 9.81161 77.6941 9.38161 77.3941 9.07494C77.0941 8.76161 76.6641 8.60494 76.1041 8.60494C75.7174 8.60494 75.3774 8.69494 75.0841 8.87494C74.7907 9.05494 74.5741 9.29827 74.4341 9.60494H73.7741V5.63494H78.0841V6.24494Z" fill="black"/>
<rect x="86.5" y="3.51172" width="11" height="11.0468" fill="white" stroke="#938D8D"/>
<path d="M93.6255 7.39494C93.4788 6.52827 92.9755 6.09494 92.1155 6.09494C91.4621 6.09494 90.9721 6.34827 90.6455 6.85494C90.3188 7.36161 90.1688 8.19161 90.1955 9.34494C90.3288 8.94494 90.5821 8.63161 90.9555 8.40494C91.3355 8.17161 91.7688 8.05494 92.2555 8.05494C92.9555 8.05494 93.5088 8.27161 93.9155 8.70494C94.3288 9.13161 94.5355 9.72161 94.5355 10.4749C94.5355 10.9149 94.4488 11.3149 94.2755 11.6749C94.1088 12.0283 93.8488 12.3116 93.4955 12.5249C93.1488 12.7383 92.7155 12.8449 92.1955 12.8449C91.2021 12.8449 90.5155 12.5283 90.1355 11.8949C89.7621 11.2616 89.5755 10.3649 89.5755 9.20494C89.5755 6.73827 90.4221 5.50494 92.1155 5.50494C92.7555 5.50494 93.2588 5.68161 93.6255 6.03494C93.9921 6.38161 94.2088 6.83494 94.2755 7.39494H93.6255ZM92.1255 8.65494C91.8121 8.65494 91.5155 8.71827 91.2355 8.84494C90.9555 8.97161 90.7255 9.16494 90.5455 9.42494C90.3721 9.67827 90.2855 9.99161 90.2855 10.3649C90.2855 10.9049 90.4455 11.3549 90.7655 11.7149C91.0855 12.0749 91.5521 12.2549 92.1655 12.2549C92.6788 12.2549 93.0888 12.0983 93.3955 11.7849C93.7021 11.4716 93.8555 11.0449 93.8555 10.5049C93.8555 9.92494 93.7055 9.47161 93.4055 9.14494C93.1055 8.81827 92.6788 8.65494 92.1255 8.65494Z" fill="black"/>
<rect x="102.5" y="3.51172" width="11" height="11.0468" fill="white" stroke="#938D8D"/>
<path d="M110.274 6.19494L107.484 12.8149H106.774L109.594 6.25494H105.594V5.65494H110.274V6.19494Z" fill="black"/>
<rect x="118.5" y="3.51172" width="11" height="11.0468" fill="white" stroke="#938D8D"/>
<path d="M122.92 9.09494C122.507 8.96161 122.19 8.75161 121.97 8.46494C121.757 8.17827 121.65 7.83161 121.65 7.42494C121.65 7.06494 121.74 6.74494 121.92 6.46494C122.107 6.17827 122.377 5.95494 122.73 5.79494C123.083 5.62827 123.507 5.54494 124 5.54494C124.493 5.54494 124.917 5.62827 125.27 5.79494C125.623 5.95494 125.89 6.17827 126.07 6.46494C126.257 6.74494 126.35 7.06494 126.35 7.42494C126.35 7.82494 126.24 8.17161 126.02 8.46494C125.807 8.75827 125.493 8.96827 125.08 9.09494C125.533 9.20827 125.89 9.42494 126.15 9.74494C126.41 10.0649 126.54 10.4549 126.54 10.9149C126.54 11.3416 126.433 11.7149 126.22 12.0349C126.013 12.3483 125.717 12.5916 125.33 12.7649C124.95 12.9383 124.507 13.0249 124 13.0249C123.493 13.0249 123.047 12.9383 122.66 12.7649C122.28 12.5916 121.983 12.3483 121.77 12.0349C121.563 11.7149 121.46 11.3416 121.46 10.9149C121.46 10.4549 121.59 10.0649 121.85 9.74494C122.11 9.42494 122.467 9.20827 122.92 9.09494ZM125.67 7.50494C125.67 7.06494 125.52 6.72494 125.22 6.48494C124.92 6.24494 124.513 6.12494 124 6.12494C123.487 6.12494 123.08 6.24494 122.78 6.48494C122.48 6.71827 122.33 7.05827 122.33 7.50494C122.33 7.91827 122.483 8.24827 122.79 8.49494C123.097 8.74161 123.5 8.86494 124 8.86494C124.5 8.86494 124.903 8.74161 125.21 8.49494C125.517 8.24827 125.67 7.91827 125.67 7.50494ZM124 9.40494C123.453 9.40494 123.007 9.52827 122.66 9.77494C122.313 10.0216 122.14 10.3949 122.14 10.8949C122.14 11.3749 122.307 11.7516 122.64 12.0249C122.973 12.2983 123.427 12.4349 124 12.4349C124.567 12.4349 125.017 12.2983 125.35 12.0249C125.683 11.7449 125.85 11.3683 125.85 10.8949C125.85 10.4016 125.677 10.0316 125.33 9.78494C124.99 9.53161 124.547 9.40494 124 9.40494Z" fill="black"/>
<rect x="134.5" y="3.51172" width="11" height="11.0468" fill="white" stroke="#938D8D"/>
<path d="M138.455 10.9049C138.528 11.3383 138.695 11.6716 138.955 11.9049C139.215 12.1383 139.572 12.2549 140.025 12.2549C140.652 12.2549 141.115 12.0116 141.415 11.5249C141.722 11.0316 141.862 10.2183 141.835 9.08494C141.708 9.45161 141.465 9.74161 141.105 9.95494C140.752 10.1616 140.345 10.2649 139.885 10.2649C139.185 10.2649 138.622 10.0549 138.195 9.63494C137.775 9.21494 137.565 8.63161 137.565 7.88494C137.565 7.43827 137.652 7.03494 137.825 6.67494C137.998 6.31494 138.262 6.03161 138.615 5.82494C138.968 5.61827 139.402 5.51494 139.915 5.51494C140.862 5.51494 141.522 5.82494 141.895 6.44494C142.268 7.05827 142.455 7.94161 142.455 9.09494C142.455 10.3416 142.268 11.2783 141.895 11.9049C141.528 12.5316 140.895 12.8449 139.995 12.8449C139.335 12.8449 138.822 12.6683 138.455 12.3149C138.088 11.9549 137.872 11.4849 137.805 10.9049H138.455ZM139.995 9.66494C140.308 9.66494 140.595 9.60161 140.855 9.47494C141.122 9.34161 141.335 9.14827 141.495 8.89494C141.655 8.64161 141.735 8.33827 141.735 7.98494C141.735 7.43827 141.578 6.98827 141.265 6.63494C140.958 6.28161 140.515 6.10494 139.935 6.10494C139.422 6.10494 139.008 6.26494 138.695 6.58494C138.388 6.90494 138.235 7.33161 138.235 7.86494C138.235 8.42494 138.388 8.86494 138.695 9.18494C139.002 9.50494 139.435 9.66494 139.995 9.66494Z" fill="black"/>
<rect x="134.5" y="3.51172" width="11" height="11.0468" fill="white" stroke="#938D8D"/>
<path d="M138.455 10.9049C138.528 11.3383 138.695 11.6716 138.955 11.9049C139.215 12.1383 139.572 12.2549 140.025 12.2549C140.652 12.2549 141.115 12.0116 141.415 11.5249C141.722 11.0316 141.862 10.2183 141.835 9.08494C141.708 9.45161 141.465 9.74161 141.105 9.95494C140.752 10.1616 140.345 10.2649 139.885 10.2649C139.185 10.2649 138.622 10.0549 138.195 9.63494C137.775 9.21494 137.565 8.63161 137.565 7.88494C137.565 7.43827 137.652 7.03494 137.825 6.67494C137.998 6.31494 138.262 6.03161 138.615 5.82494C138.968 5.61827 139.402 5.51494 139.915 5.51494C140.862 5.51494 141.522 5.82494 141.895 6.44494C142.268 7.05827 142.455 7.94161 142.455 9.09494C142.455 10.3416 142.268 11.2783 141.895 11.9049C141.528 12.5316 140.895 12.8449 139.995 12.8449C139.335 12.8449 138.822 12.6683 138.455 12.3149C138.088 11.9549 137.872 11.4849 137.805 10.9049H138.455ZM139.995 9.66494C140.308 9.66494 140.595 9.60161 140.855 9.47494C141.122 9.34161 141.335 9.14827 141.495 8.89494C141.655 8.64161 141.735 8.33827 141.735 7.98494C141.735 7.43827 141.578 6.98827 141.265 6.63494C140.958 6.28161 140.515 6.10494 139.935 6.10494C139.422 6.10494 139.008 6.26494 138.695 6.58494C138.388 6.90494 138.235 7.33161 138.235 7.86494C138.235 8.42494 138.388 8.86494 138.695 9.18494C139.002 9.50494 139.435 9.66494 139.995 9.66494Z" fill="black"/>
</svg>
