<svg width="24" height="24" viewBox="0 0 24 24" fill="none" xmlns="http://www.w3.org/2000/svg">
<path d="M12 0C5.376 0 0 5.376 0 12C0 18.624 5.376 24 12 24C18.624 24 24 18.624 24 12C24 5.376 18.624 0 12 0ZM6.42 19.8C7.992 18.672 9.912 18 12 18C14.088 18 16.008 18.672 17.58 19.8C16.008 20.928 14.088 21.6 12 21.6C9.912 21.6 7.992 20.928 6.42 19.8ZM19.368 18.144C17.2661 16.4949 14.6717 15.5986 12 15.5986C9.32834 15.5986 6.73393 16.4949 4.632 18.144C3.18831 16.4224 2.39796 14.2468 2.4 12C2.4 6.696 6.696 2.4 12 2.4C17.304 2.4 21.6 6.696 21.6 12C21.6 14.34 20.76 16.476 19.368 18.144Z" fill="black"/>
<path d="M12.0008 4.79993C9.68478 4.79993 7.80078 6.68393 7.80078 8.99993C7.80078 11.3159 9.68478 13.1999 12.0008 13.1999C14.3168 13.1999 16.2008 11.3159 16.2008 8.99993C16.2008 6.68393 14.3168 4.79993 12.0008 4.79993ZM12.0008 10.7999C11.0048 10.7999 10.2008 9.99593 10.2008 8.99993C10.2008 8.00393 11.0048 7.19993 12.0008 7.19993C12.9968 7.19993 13.8008 8.00393 13.8008 8.99993C13.8008 9.99593 12.9968 10.7999 12.0008 10.7999Z" fill="black"/>
</svg>
