<svg width="20" height="16" viewBox="0 0 20 16" fill="none" xmlns="http://www.w3.org/2000/svg">
<path d="M1.32694 16C0.781565 16 0.314688 15.8042 -0.073687 15.4125C-0.462062 15.0208 -0.65625 14.55 -0.65625 14V2C-0.65625 1.45 -0.462062 0.979167 -0.073687 0.5875C0.314688 0.195833 0.781565 0 1.32694 0H17.1925C17.7379 0 18.2047 0.195833 18.5931 0.5875C18.9815 0.979167 19.1757 1.45 19.1757 2V14C19.1757 14.55 18.9815 15.0208 18.5931 15.4125C18.2047 15.8042 17.7379 16 17.1925 16H1.32694ZM9.25972 9L1.32694 4V14H17.1925V4L9.25972 9ZM9.25972 7L17.1925 2H1.32694L9.25972 7ZM1.32694 4V2V14V4Z" fill="#CDC5C5"/>
</svg>
