<svg width="20" height="17" viewBox="0 0 20 17" fill="none" xmlns="http://www.w3.org/2000/svg">
<path d="M9.2767 10.2C8.53301 10.2 7.90086 9.9375 7.38028 9.4125C6.85969 8.8875 6.59939 8.25 6.59939 7.5C6.59939 6.75 6.85969 6.1125 7.38028 5.5875C7.90086 5.0625 8.53301 4.8 9.2767 4.8C10.0204 4.8 10.6525 5.0625 11.1731 5.5875C11.6937 6.1125 11.954 6.75 11.954 7.5C11.954 8.25 11.6937 8.8875 11.1731 9.4125C10.6525 9.9375 10.0204 10.2 9.2767 10.2ZM9.2767 15C6.86382 15 4.66578 14.3208 2.68259 12.9625C0.699393 11.6042 -0.738422 9.78333 -1.63086 7.5C-0.738422 5.21667 0.699393 3.39583 2.68259 2.0375C4.66578 0.679167 6.86382 0 9.2767 0C11.607 0 13.7348 0.633333 15.6601 1.9C17.5855 3.16667 19.0274 4.86667 19.9859 7H17.7301C16.8707 5.45 15.689 4.22917 14.1851 3.3375C12.6812 2.44583 11.0451 2 9.2767 2C7.4092 2 5.69456 2.49583 4.1328 3.4875C2.57103 4.47917 1.37698 5.81667 0.550653 7.5C1.37698 9.18333 2.57103 10.5208 4.1328 11.5125C5.69456 12.5042 7.4092 13 9.2767 13C9.60724 13 9.93777 12.9833 10.2683 12.95C10.5988 12.9167 10.9294 12.8667 11.2599 12.8V14.825C10.9294 14.875 10.5988 14.9167 10.2683 14.95C9.93777 14.9833 9.60724 15 9.2767 15ZM9.2767 12C9.64029 12 9.99148 11.9583 10.3303 11.875C10.6691 11.7917 10.9872 11.675 11.2847 11.525C11.3673 10.6917 11.6276 9.94167 12.0656 9.275C12.5035 8.60833 13.0613 8.075 13.7389 7.675V7.5C13.7389 6.25 13.3051 5.1875 12.4374 4.3125C11.5698 3.4375 10.5162 3 9.2767 3C8.03721 3 6.98364 3.4375 6.11599 4.3125C5.24834 5.1875 4.81452 6.25 4.81452 7.5C4.81452 8.75 5.24834 9.8125 6.11599 10.6875C6.98364 11.5625 8.03721 12 9.2767 12ZM14.2347 17C13.9537 17 13.7182 16.9042 13.5282 16.7125C13.3381 16.5208 13.2431 16.2833 13.2431 16V13C13.2431 12.7167 13.3381 12.4792 13.5282 12.2875C13.7182 12.0958 13.9537 12 14.2347 12V11C14.2347 10.45 14.4289 9.97917 14.8173 9.5875C15.2056 9.19583 15.6725 9 16.2179 9C16.7633 9 17.2301 9.19583 17.6185 9.5875C18.0069 9.97917 18.2011 10.45 18.2011 11V12C18.482 12 18.7175 12.0958 18.9076 12.2875C19.0976 12.4792 19.1927 12.7167 19.1927 13V16C19.1927 16.2833 19.0976 16.5208 18.9076 16.7125C18.7175 16.9042 18.482 17 18.2011 17H14.2347ZM15.2263 12H17.2095V11C17.2095 10.7167 17.1145 10.4792 16.9244 10.2875C16.7343 10.0958 16.4988 10 16.2179 10C15.9369 10 15.7014 10.0958 15.5114 10.2875C15.3213 10.4792 15.2263 10.7167 15.2263 11V12Z" fill="#CDC5C5"/>
</svg>
